# xmcd CD database file
#
# Track frame offsets:
#	150
#	16987
#	32400
#	46902
#	66977
#	84272
#	94507
#	104460
#	126917
#	143660
#	165347
#	180382
#	193917
#	207100
#
# Disc length: 2864 seconds
#
# Revision: 2
# Processed by: cddbd v1.5.2PL0 Copyright (c) Steve Scherf et al.
# Submitted via: CDex 1.70beta2
#
DISCID=ae0b2e0e
DTITLE=東京ホット倶楽部バンド - Club De Saint Germain 1946
DYEAR=1989
DGENRE=Jazz
TTITLE0=Lover Come Back To Me
TTITLE1=Swing 42
TTITLE2=La Valse A Django
TTITLE3=After You've Gone
TTITLE4=Home
TTITLE5=La Marseillaise
TTITLE6=Club De Saint Germain
TTITLE7=Dark Eyes
TTITLE8=Avalon
TTITLE9=In A Sentimenrtal Mood
TTITLE10=Stompin' At The Savoy
TTITLE11=Poor Butterfly
TTITLE12=Menil Montant
TTITLE13=Limelight
EXTD=YEAR: 1989
EXTT0=
EXTT1=
EXTT2=
EXTT3=
EXTT4=
EXTT5=
EXTT6=
EXTT7=
EXTT8=
EXTT9=
EXTT10=
EXTT11=
EXTT12=
EXTT13=
PLAYORDER=
